<mxfile host="app.diagrams.net" modified="2023-08-23T16:23:47.327Z" agent="Mozilla/5.0 (Windows NT 10.0; Win64; x64) AppleWebKit/537.36 (KHTML, like Gecko) Chrome/115.0.0.0 Safari/537.36 Edg/115.0.1901.203" etag="AfyNd0eFFSIsFnjd8v9z" version="21.6.8" type="github">
  <diagram id="C5RBs43oDa-KdzZeNtuy" name="Page-1">
    <mxGraphModel dx="987" dy="614" grid="1" gridSize="10" guides="1" tooltips="1" connect="1" arrows="1" fold="1" page="1" pageScale="1" pageWidth="827" pageHeight="1169" math="0" shadow="0">
      <root>
        <mxCell id="WIyWlLk6GJQsqaUBKTNV-0" />
        <mxCell id="WIyWlLk6GJQsqaUBKTNV-1" parent="WIyWlLk6GJQsqaUBKTNV-0" />
        <mxCell id="Q3x0Cuo6FLWfgJiumJtD-0" value="Individual" style="swimlane;whiteSpace=wrap;html=1;" vertex="1" parent="WIyWlLk6GJQsqaUBKTNV-1">
          <mxGeometry width="420" height="1160" as="geometry" />
        </mxCell>
        <mxCell id="Q3x0Cuo6FLWfgJiumJtD-93" style="edgeStyle=orthogonalEdgeStyle;rounded=0;orthogonalLoop=1;jettySize=auto;html=1;exitX=0.5;exitY=1;exitDx=0;exitDy=0;entryX=0.5;entryY=0;entryDx=0;entryDy=0;" edge="1" parent="Q3x0Cuo6FLWfgJiumJtD-0" source="Q3x0Cuo6FLWfgJiumJtD-1" target="Q3x0Cuo6FLWfgJiumJtD-90">
          <mxGeometry relative="1" as="geometry" />
        </mxCell>
        <mxCell id="Q3x0Cuo6FLWfgJiumJtD-1" value="" style="ellipse;whiteSpace=wrap;html=1;aspect=fixed;fillColor=#000000;" vertex="1" parent="Q3x0Cuo6FLWfgJiumJtD-0">
          <mxGeometry x="200" y="50" width="20" height="20" as="geometry" />
        </mxCell>
        <mxCell id="Q3x0Cuo6FLWfgJiumJtD-94" style="edgeStyle=orthogonalEdgeStyle;rounded=0;orthogonalLoop=1;jettySize=auto;html=1;exitX=0.5;exitY=1;exitDx=0;exitDy=0;" edge="1" parent="Q3x0Cuo6FLWfgJiumJtD-0" source="Q3x0Cuo6FLWfgJiumJtD-90" target="Q3x0Cuo6FLWfgJiumJtD-91">
          <mxGeometry relative="1" as="geometry" />
        </mxCell>
        <mxCell id="Q3x0Cuo6FLWfgJiumJtD-90" value="Chose a random change in heading." style="rounded=1;whiteSpace=wrap;html=1;" vertex="1" parent="Q3x0Cuo6FLWfgJiumJtD-0">
          <mxGeometry x="150" y="100" width="120" height="60" as="geometry" />
        </mxCell>
        <mxCell id="Q3x0Cuo6FLWfgJiumJtD-95" style="edgeStyle=orthogonalEdgeStyle;rounded=0;orthogonalLoop=1;jettySize=auto;html=1;exitX=0.5;exitY=1;exitDx=0;exitDy=0;entryX=0.5;entryY=0;entryDx=0;entryDy=0;" edge="1" parent="Q3x0Cuo6FLWfgJiumJtD-0" source="Q3x0Cuo6FLWfgJiumJtD-91" target="Q3x0Cuo6FLWfgJiumJtD-92">
          <mxGeometry relative="1" as="geometry" />
        </mxCell>
        <mxCell id="Q3x0Cuo6FLWfgJiumJtD-91" value="Move" style="rounded=1;whiteSpace=wrap;html=1;" vertex="1" parent="Q3x0Cuo6FLWfgJiumJtD-0">
          <mxGeometry x="150" y="200" width="120" height="60" as="geometry" />
        </mxCell>
        <mxCell id="Q3x0Cuo6FLWfgJiumJtD-99" style="edgeStyle=orthogonalEdgeStyle;rounded=0;orthogonalLoop=1;jettySize=auto;html=1;exitX=0.5;exitY=1;exitDx=0;exitDy=0;" edge="1" parent="Q3x0Cuo6FLWfgJiumJtD-0" source="Q3x0Cuo6FLWfgJiumJtD-92" target="Q3x0Cuo6FLWfgJiumJtD-98">
          <mxGeometry relative="1" as="geometry" />
        </mxCell>
        <mxCell id="Q3x0Cuo6FLWfgJiumJtD-102" value="Yes" style="edgeLabel;html=1;align=center;verticalAlign=middle;resizable=0;points=[];" vertex="1" connectable="0" parent="Q3x0Cuo6FLWfgJiumJtD-99">
          <mxGeometry x="-0.0095" relative="1" as="geometry">
            <mxPoint as="offset" />
          </mxGeometry>
        </mxCell>
        <mxCell id="Q3x0Cuo6FLWfgJiumJtD-109" style="edgeStyle=orthogonalEdgeStyle;rounded=0;orthogonalLoop=1;jettySize=auto;html=1;entryX=1;entryY=1;entryDx=0;entryDy=0;" edge="1" parent="Q3x0Cuo6FLWfgJiumJtD-0" source="Q3x0Cuo6FLWfgJiumJtD-92" target="Q3x0Cuo6FLWfgJiumJtD-1">
          <mxGeometry relative="1" as="geometry">
            <Array as="points">
              <mxPoint x="340" y="350" />
              <mxPoint x="340" y="67" />
            </Array>
          </mxGeometry>
        </mxCell>
        <mxCell id="Q3x0Cuo6FLWfgJiumJtD-110" value="No" style="edgeLabel;html=1;align=center;verticalAlign=middle;resizable=0;points=[];" vertex="1" connectable="0" parent="Q3x0Cuo6FLWfgJiumJtD-109">
          <mxGeometry x="-0.9187" y="-3" relative="1" as="geometry">
            <mxPoint as="offset" />
          </mxGeometry>
        </mxCell>
        <mxCell id="Q3x0Cuo6FLWfgJiumJtD-92" value="Bump into someone?" style="rhombus;whiteSpace=wrap;html=1;" vertex="1" parent="Q3x0Cuo6FLWfgJiumJtD-0">
          <mxGeometry x="170" y="310" width="80" height="80" as="geometry" />
        </mxCell>
        <mxCell id="Q3x0Cuo6FLWfgJiumJtD-101" style="edgeStyle=orthogonalEdgeStyle;rounded=0;orthogonalLoop=1;jettySize=auto;html=1;exitX=0.5;exitY=1;exitDx=0;exitDy=0;entryX=0.5;entryY=0;entryDx=0;entryDy=0;" edge="1" parent="Q3x0Cuo6FLWfgJiumJtD-0" source="Q3x0Cuo6FLWfgJiumJtD-98" target="Q3x0Cuo6FLWfgJiumJtD-100">
          <mxGeometry relative="1" as="geometry" />
        </mxCell>
        <mxCell id="Q3x0Cuo6FLWfgJiumJtD-98" value="Exchange color/number" style="rounded=1;whiteSpace=wrap;html=1;" vertex="1" parent="Q3x0Cuo6FLWfgJiumJtD-0">
          <mxGeometry x="160" y="430" width="100" height="40" as="geometry" />
        </mxCell>
        <mxCell id="Q3x0Cuo6FLWfgJiumJtD-113" style="edgeStyle=orthogonalEdgeStyle;rounded=0;orthogonalLoop=1;jettySize=auto;html=1;exitX=0;exitY=0.5;exitDx=0;exitDy=0;entryX=0.5;entryY=1;entryDx=0;entryDy=0;" edge="1" parent="Q3x0Cuo6FLWfgJiumJtD-0" source="Q3x0Cuo6FLWfgJiumJtD-100" target="Q3x0Cuo6FLWfgJiumJtD-112">
          <mxGeometry relative="1" as="geometry" />
        </mxCell>
        <mxCell id="Q3x0Cuo6FLWfgJiumJtD-116" value="No" style="edgeLabel;html=1;align=center;verticalAlign=middle;resizable=0;points=[];" vertex="1" connectable="0" parent="Q3x0Cuo6FLWfgJiumJtD-113">
          <mxGeometry x="-0.6365" y="4" relative="1" as="geometry">
            <mxPoint as="offset" />
          </mxGeometry>
        </mxCell>
        <mxCell id="Q3x0Cuo6FLWfgJiumJtD-121" style="edgeStyle=orthogonalEdgeStyle;rounded=0;orthogonalLoop=1;jettySize=auto;html=1;entryX=0.5;entryY=0;entryDx=0;entryDy=0;" edge="1" parent="Q3x0Cuo6FLWfgJiumJtD-0" source="Q3x0Cuo6FLWfgJiumJtD-100" target="Q3x0Cuo6FLWfgJiumJtD-120">
          <mxGeometry relative="1" as="geometry" />
        </mxCell>
        <mxCell id="Q3x0Cuo6FLWfgJiumJtD-100" value="Are they equal?" style="rhombus;whiteSpace=wrap;html=1;" vertex="1" parent="Q3x0Cuo6FLWfgJiumJtD-0">
          <mxGeometry x="170" y="510" width="80" height="80" as="geometry" />
        </mxCell>
        <mxCell id="Q3x0Cuo6FLWfgJiumJtD-118" style="edgeStyle=orthogonalEdgeStyle;rounded=0;orthogonalLoop=1;jettySize=auto;html=1;exitX=0.5;exitY=0;exitDx=0;exitDy=0;entryX=0;entryY=0.5;entryDx=0;entryDy=0;" edge="1" parent="Q3x0Cuo6FLWfgJiumJtD-0" source="Q3x0Cuo6FLWfgJiumJtD-112" target="Q3x0Cuo6FLWfgJiumJtD-91">
          <mxGeometry relative="1" as="geometry" />
        </mxCell>
        <mxCell id="Q3x0Cuo6FLWfgJiumJtD-112" value="Turn around 180Â°" style="rounded=1;whiteSpace=wrap;html=1;" vertex="1" parent="Q3x0Cuo6FLWfgJiumJtD-0">
          <mxGeometry x="30" y="370" width="90" height="40" as="geometry" />
        </mxCell>
        <mxCell id="Q3x0Cuo6FLWfgJiumJtD-124" style="edgeStyle=orthogonalEdgeStyle;rounded=0;orthogonalLoop=1;jettySize=auto;html=1;exitX=0;exitY=0.5;exitDx=0;exitDy=0;entryX=0.5;entryY=0;entryDx=0;entryDy=0;" edge="1" parent="Q3x0Cuo6FLWfgJiumJtD-0" source="Q3x0Cuo6FLWfgJiumJtD-120" target="Q3x0Cuo6FLWfgJiumJtD-123">
          <mxGeometry relative="1" as="geometry" />
        </mxCell>
        <mxCell id="Q3x0Cuo6FLWfgJiumJtD-126" value="Yes" style="edgeLabel;html=1;align=center;verticalAlign=middle;resizable=0;points=[];" vertex="1" connectable="0" parent="Q3x0Cuo6FLWfgJiumJtD-124">
          <mxGeometry x="0.0781" y="2" relative="1" as="geometry">
            <mxPoint as="offset" />
          </mxGeometry>
        </mxCell>
        <mxCell id="Q3x0Cuo6FLWfgJiumJtD-125" style="edgeStyle=orthogonalEdgeStyle;rounded=0;orthogonalLoop=1;jettySize=auto;html=1;exitX=1;exitY=0.5;exitDx=0;exitDy=0;entryX=0.5;entryY=0;entryDx=0;entryDy=0;" edge="1" parent="Q3x0Cuo6FLWfgJiumJtD-0" source="Q3x0Cuo6FLWfgJiumJtD-120" target="Q3x0Cuo6FLWfgJiumJtD-122">
          <mxGeometry relative="1" as="geometry" />
        </mxCell>
        <mxCell id="Q3x0Cuo6FLWfgJiumJtD-127" value="No" style="edgeLabel;html=1;align=center;verticalAlign=middle;resizable=0;points=[];" vertex="1" connectable="0" parent="Q3x0Cuo6FLWfgJiumJtD-125">
          <mxGeometry x="0.0882" y="2" relative="1" as="geometry">
            <mxPoint as="offset" />
          </mxGeometry>
        </mxCell>
        <mxCell id="Q3x0Cuo6FLWfgJiumJtD-120" value="Is that someone an agent already belonging to a group?" style="rhombus;whiteSpace=wrap;html=1;" vertex="1" parent="Q3x0Cuo6FLWfgJiumJtD-0">
          <mxGeometry x="145" y="630" width="130" height="140" as="geometry" />
        </mxCell>
        <mxCell id="Q3x0Cuo6FLWfgJiumJtD-122" value="Create new group with the individual agent" style="rounded=1;whiteSpace=wrap;html=1;" vertex="1" parent="Q3x0Cuo6FLWfgJiumJtD-0">
          <mxGeometry x="240" y="830" width="120" height="60" as="geometry" />
        </mxCell>
        <mxCell id="Q3x0Cuo6FLWfgJiumJtD-123" value="Join group" style="rounded=1;whiteSpace=wrap;html=1;" vertex="1" parent="Q3x0Cuo6FLWfgJiumJtD-0">
          <mxGeometry x="70" y="850" width="100" height="40" as="geometry" />
        </mxCell>
        <mxCell id="Q3x0Cuo6FLWfgJiumJtD-62" style="edgeStyle=orthogonalEdgeStyle;rounded=0;orthogonalLoop=1;jettySize=auto;html=1;" edge="1" parent="WIyWlLk6GJQsqaUBKTNV-1" target="Q3x0Cuo6FLWfgJiumJtD-82">
          <mxGeometry relative="1" as="geometry">
            <Array as="points">
              <mxPoint x="300" y="740" />
              <mxPoint x="300" y="1295" />
            </Array>
            <mxPoint x="367.49" y="740" as="sourcePoint" />
          </mxGeometry>
        </mxCell>
        <mxCell id="Q3x0Cuo6FLWfgJiumJtD-83" value="Collective" style="swimlane;whiteSpace=wrap;html=1;" vertex="1" parent="WIyWlLk6GJQsqaUBKTNV-1">
          <mxGeometry x="420" width="407" height="1160" as="geometry" />
        </mxCell>
        <mxCell id="Q3x0Cuo6FLWfgJiumJtD-133" style="edgeStyle=orthogonalEdgeStyle;rounded=0;orthogonalLoop=1;jettySize=auto;html=1;entryX=0.5;entryY=0;entryDx=0;entryDy=0;" edge="1" parent="Q3x0Cuo6FLWfgJiumJtD-83" source="Q3x0Cuo6FLWfgJiumJtD-119" target="Q3x0Cuo6FLWfgJiumJtD-131">
          <mxGeometry relative="1" as="geometry" />
        </mxCell>
        <mxCell id="Q3x0Cuo6FLWfgJiumJtD-134" value="Yes" style="edgeLabel;html=1;align=center;verticalAlign=middle;resizable=0;points=[];" vertex="1" connectable="0" parent="Q3x0Cuo6FLWfgJiumJtD-133">
          <mxGeometry x="-0.2267" y="3" relative="1" as="geometry">
            <mxPoint y="-1" as="offset" />
          </mxGeometry>
        </mxCell>
        <mxCell id="Q3x0Cuo6FLWfgJiumJtD-119" value="Bump into someone?" style="rhombus;whiteSpace=wrap;html=1;" vertex="1" parent="Q3x0Cuo6FLWfgJiumJtD-83">
          <mxGeometry x="170" y="80" width="80" height="80" as="geometry" />
        </mxCell>
        <mxCell id="Q3x0Cuo6FLWfgJiumJtD-131" value="Exchange color/number" style="rounded=1;whiteSpace=wrap;html=1;" vertex="1" parent="Q3x0Cuo6FLWfgJiumJtD-83">
          <mxGeometry x="160" y="210" width="100" height="40" as="geometry" />
        </mxCell>
        <mxCell id="Q3x0Cuo6FLWfgJiumJtD-137" style="edgeStyle=orthogonalEdgeStyle;rounded=0;orthogonalLoop=1;jettySize=auto;html=1;" edge="1" parent="Q3x0Cuo6FLWfgJiumJtD-83" source="Q3x0Cuo6FLWfgJiumJtD-132" target="Q3x0Cuo6FLWfgJiumJtD-135">
          <mxGeometry relative="1" as="geometry" />
        </mxCell>
        <mxCell id="Q3x0Cuo6FLWfgJiumJtD-138" value="Yes" style="edgeLabel;html=1;align=center;verticalAlign=middle;resizable=0;points=[];" vertex="1" connectable="0" parent="Q3x0Cuo6FLWfgJiumJtD-137">
          <mxGeometry x="-0.1048" y="3" relative="1" as="geometry">
            <mxPoint y="-1" as="offset" />
          </mxGeometry>
        </mxCell>
        <mxCell id="Q3x0Cuo6FLWfgJiumJtD-132" value="Are they equal?" style="rhombus;whiteSpace=wrap;html=1;" vertex="1" parent="Q3x0Cuo6FLWfgJiumJtD-83">
          <mxGeometry x="170" y="290" width="80" height="80" as="geometry" />
        </mxCell>
        <mxCell id="Q3x0Cuo6FLWfgJiumJtD-130" style="edgeStyle=orthogonalEdgeStyle;rounded=0;orthogonalLoop=1;jettySize=auto;html=1;exitX=0.5;exitY=1;exitDx=0;exitDy=0;entryX=0.5;entryY=0;entryDx=0;entryDy=0;" edge="1" parent="Q3x0Cuo6FLWfgJiumJtD-83" source="Q3x0Cuo6FLWfgJiumJtD-131" target="Q3x0Cuo6FLWfgJiumJtD-132">
          <mxGeometry relative="1" as="geometry" />
        </mxCell>
        <mxCell id="Q3x0Cuo6FLWfgJiumJtD-135" value="Welcome them in the group" style="rounded=1;whiteSpace=wrap;html=1;" vertex="1" parent="Q3x0Cuo6FLWfgJiumJtD-83">
          <mxGeometry x="160" y="410" width="100" height="40" as="geometry" />
        </mxCell>
        <mxCell id="Q3x0Cuo6FLWfgJiumJtD-128" style="edgeStyle=orthogonalEdgeStyle;rounded=0;orthogonalLoop=1;jettySize=auto;html=1;entryX=0;entryY=0.5;entryDx=0;entryDy=0;" edge="1" parent="WIyWlLk6GJQsqaUBKTNV-1" source="Q3x0Cuo6FLWfgJiumJtD-122" target="Q3x0Cuo6FLWfgJiumJtD-119">
          <mxGeometry relative="1" as="geometry" />
        </mxCell>
        <mxCell id="Q3x0Cuo6FLWfgJiumJtD-139" style="edgeStyle=orthogonalEdgeStyle;rounded=0;orthogonalLoop=1;jettySize=auto;html=1;entryX=0.5;entryY=1;entryDx=0;entryDy=0;strokeColor=default;shape=link;dashed=1;" edge="1" parent="WIyWlLk6GJQsqaUBKTNV-1" source="Q3x0Cuo6FLWfgJiumJtD-135" target="Q3x0Cuo6FLWfgJiumJtD-123">
          <mxGeometry relative="1" as="geometry">
            <Array as="points">
              <mxPoint x="630" y="980" />
              <mxPoint x="120" y="980" />
            </Array>
          </mxGeometry>
        </mxCell>
      </root>
    </mxGraphModel>
  </diagram>
</mxfile>
